<svg width="32" height="32" viewBox="0 0 32 32" fill="none" xmlns="http://www.w3.org/2000/svg">
<path d="M21.786 12.7277H16.5441C13.72 12.7277 11.4308 15.0042 11.4059 17.8239H16.6478C19.472 17.8239 21.7653 15.5474 21.786 12.7277Z" fill="url(#paint0_linear_897_36035)"/>
<path d="M16.6497 17.8657H11.3705V17.8242C11.3829 16.4517 11.9262 15.1579 12.9008 14.1917C13.8753 13.2214 15.1733 12.6906 16.546 12.6906H21.8253V12.7321C21.8128 14.1047 21.2695 15.3984 20.295 16.3646C19.3204 17.3308 18.0265 17.8657 16.6497 17.8657ZM11.4493 17.7827H16.6497C18.0058 17.7827 19.279 17.2561 20.2411 16.3024C21.1908 15.3569 21.7257 14.1047 21.7465 12.7653H16.546C15.1899 12.7653 13.9168 13.2919 12.9547 14.2456C12.005 15.1911 11.47 16.4475 11.4493 17.7827Z" fill="#787878"/>
<path d="M3.52145 8.45065L3.52975 28.9227C8.82141 28.6159 10.1734 25.4976 10.1734 23.5113V9.39194C10.4471 4.36619 15.5646 3.07658 17.6174 3.03926H10.2687C5.19687 3.15122 3.4634 6.68832 3.52145 8.45065Z" fill="#33414E"/>
<path d="M3.32838 29.1344L3.32008 8.45499C3.2952 7.61736 3.67258 6.20335 4.82547 4.98838C5.72124 4.04294 7.39251 2.90261 10.2664 2.84041H10.2706H17.6192L17.6233 3.24263C16.5824 3.25922 14.8324 3.60754 13.3353 4.51981C12.4976 5.02984 11.8216 5.66428 11.3322 6.39824C10.7599 7.26075 10.4365 8.26839 10.3743 9.40042V23.5115C10.3743 24.7721 9.86831 26.0368 8.98084 26.9823C7.78233 28.2636 5.94933 28.981 3.53988 29.1219L3.32838 29.1344ZM10.2747 3.23849C7.5418 3.29654 5.96177 4.37053 5.11991 5.26206C4.04997 6.38995 3.70161 7.67956 3.7265 8.44255V8.45084L3.73479 28.7073C5.93274 28.5456 7.60401 27.8738 8.69469 26.7086C9.85587 25.4729 9.98028 24.0589 9.98028 23.5115V9.38799V9.38384C10.1005 7.15708 11.1912 5.35743 13.1321 4.17563C13.8122 3.75682 14.5504 3.44997 15.2554 3.23849H10.2747Z" fill="#33414E"/>
<path d="M20.8546 9.34652H10.4537C10.462 6.82535 11.4407 5.21644 12.7802 4.22954C14.1322 3.23434 15.8574 2.86529 17.3545 2.84041H27.9627C27.9502 5.47354 26.7683 7.09488 25.3003 8.06105C23.8156 9.03552 22.0407 9.34652 20.8546 9.34652Z" fill="url(#paint1_linear_897_36035)"/>
<path d="M20.8546 9.38796H10.4123V9.3465C10.4206 7.06583 11.2085 5.33668 12.7554 4.19634C14.3478 3.02699 16.3177 2.81965 17.3503 2.79892H28V2.84039C27.9958 4.07609 27.7304 5.17081 27.212 6.09551C26.7642 6.89167 26.1297 7.56343 25.321 8.09835C23.4963 9.29674 21.4435 9.38796 20.8546 9.38796ZM10.4952 9.30918H20.8587C21.4393 9.30918 23.4755 9.21795 25.2795 8.032C26.0758 7.50538 26.7061 6.84191 27.1457 6.05819C27.6516 5.15837 27.9129 4.08853 27.9253 2.88185H17.3545C16.3301 2.90259 14.3769 3.10577 12.8051 4.26684C11.2873 5.37814 10.5118 7.07827 10.4952 9.30918Z" fill="#7B7B7B"/>
<defs>
<linearGradient id="paint0_linear_897_36035" x1="28.9018" y1="-3.50348" x2="4.311" y2="34.0343" gradientUnits="userSpaceOnUse">
<stop stop-color="white"/>
<stop offset="1" stop-color="#AAF17F"/>
</linearGradient>
<linearGradient id="paint1_linear_897_36035" x1="22.9198" y1="11.0101" x2="16.5914" y2="2.62854" gradientUnits="userSpaceOnUse">
<stop stop-color="white"/>
<stop offset="0.9604" stop-color="#ABF180"/>
</linearGradient>
</defs>
</svg>
